 <svg  version="1.0" xmlns="http://www.w3.org/2000/svg"  width="300.000000pt" height="300.000000pt" viewBox="0 0 300.000000 300.000000"  preserveAspectRatio="xMidYMid meet">  <g transform="translate(0.000000,300.000000) scale(0.100000,-0.100000)" fill="#8c10c6" stroke="none"> <path d="M851 1880 c0 -9 -19 -34 -41 -55 -38 -37 -40 -43 -40 -97 0 -32 2 -58 4 -58 3 0 22 10 43 23 47 27 150 30 200 4 l32 -17 56 65 c31 35 54 68 51 73 -13 22 -144 64 -213 69 -72 6 -73 6 -73 -19 0 -14 -14 -37 -35 -58 -26 -25 -35 -42 -35 -66 0 -18 -4 -36 -10 -39 -6 -4 -10 9 -10 32 0 30 8 45 41 79 27 28 39 48 36 60 -3 13 -5 14 -6 4z m208 -26 c2 -2 -25 -4 -62 -4 -36 0 -69 -4 -72 -10 -4 -6 18 -10 57 -10 41 0 71 -5 84 -15 10 -8 27 -15 37 -15 9 0 17 -4 17 -10 0 -15 -36 -12 -50 5 -9 11 -33 15 -87 15 -41 0 -72 4 -69 9 3 5 -1 11 -9 15 -8 3 -15 12 -15 20 0 12 15 13 83 9 45 -3 84 -7 86 -9z m6 -85 c16 -16 25 -29 19 -29 -6 0 -19 9 -29 20 -16 17 -29 20 -99 18 l-81 -2 75 -3 c59 -3 79 -8 97 -25 13 -12 23 -26 23 -32 0 -5 -13 2 -28 17 -26 25 -34 27 -116 27 -55 0 -85 -4 -81 -10 3 -5 41 -10 84 -10 72 0 79 -2 102 -27 l24 -28 -27 24 c-25 22 -33 23 -122 19 -100 -4 -119 5 -76 35 11 8 17 16 14 20 -17 17 14 23 98 19 87 -4 95 -6 123 -33z"/> <path d="M782 1835 c-30 -40 -34 -52 -37 -125 -2 -49 0 -78 6 -75 5 4 9 39 9 79 0 72 1 74 40 112 42 41 49 54 28 54 -7 0 -28 -20 -46 -45z"/> <path d="M762 1858 c-7 -7 -12 -9 -12 -4 0 4 -13 -1 -30 -11 -29 -17 -30 -19 -30 -98 l0 -81 -40 -39 c-22 -21 -40 -48 -40 -60 0 -32 46 -75 81 -75 18 0 28 4 24 10 -3 6 -16 10 -29 10 -22 0 -66 37 -66 56 0 6 18 28 40 49 39 38 40 40 40 111 0 62 3 76 23 96 12 13 16 17 10 8 -8 -10 -13 -48 -13 -96 l0 -80 -40 -39 c-45 -44 -48 -55 -22 -78 51 -46 76 11 73 162 l-2 94 37 38 c24 25 32 39 23 39 -8 0 -20 -5 -27 -12z m-55 -274 c7 -19 -11 -41 -21 -25 -4 6 -2 11 5 11 7 0 10 3 6 6 -3 3 -11 3 -17 -1 -8 -5 -6 -13 6 -26 21 -23 8 -25 -17 -3 -16 15 -16 17 -1 35 20 23 31 24 39 3z"/> <path d="M650 1790 c-14 -11 -22 -20 -17 -20 4 0 -6 -14 -23 -31 -27 -28 -35 -44 -28 -51 2 -2 -5 -14 -15 -28 -30 -42 -19 -45 18 -4 19 21 34 47 35 57 0 11 9 30 19 43 16 20 20 21 25 8 17 -44 6 -80 -39 -124 -39 -38 -45 -50 -45 -85 0 -48 14 -76 24 -49 4 9 2 22 -4 28 -20 20 -10 47 35 95 46 49 46 49 43 115 l-3 65 -25 -19z"/> <path d="M638 1734 c-5 -4 -8 -17 -8 -29 0 -11 -18 -38 -40 -60 -21 -21 -42 -52 -45 -69 -4 -17 -9 -39 -12 -50 -3 -10 -1 -16 4 -13 5 3 7 -7 5 -25 l-5 -31 87 5 c68 5 86 3 86 -8 0 -19 -20 -28 -33 -15 -6 6 -39 11 -74 11 l-63 0 6 -27 c3 -16 16 -51 28 -78 l23 -50 54 3 c30 2 58 7 62 12 14 13 -72 23 -87 11 -10 -8 -17 -7 -26 4 -7 8 -9 15 -4 15 5 0 0 7 -10 15 -17 13 -18 15 -3 15 15 0 22 -11 18 -32 0 -5 4 -8 10 -8 6 0 9 6 6 14 -7 18 18 42 28 26 3 -5 32 -11 63 -12 l57 -1 -60 -7 -60 -7 51 -1 c42 -2 55 -7 80 -33 26 -27 34 -30 72 -26 35 4 41 2 31 -9 -21 -25 -70 -17 -105 17 -27 26 -32 28 -28 12 7 -24 -13 -40 -29 -24 -13 13 -107 15 -107 3 0 -14 23 -32 40 -32 20 0 53 -34 44 -43 -12 -11 98 -56 154 -63 51 -6 55 -5 88 27 29 28 34 39 34 81 0 29 -4 48 -11 48 -8 0 -10 -15 -7 -45 6 -45 -6 -71 -16 -38 -3 11 -4 9 -3 -6 2 -30 -27 -51 -45 -33 -11 11 -7 18 20 41 21 19 32 38 32 55 0 23 -4 26 -32 26 -77 1 -161 63 -180 134 -11 42 -15 45 -47 48 -20 2 -53 -1 -75 -5 -21 -4 -40 -6 -42 -5 -1 2 0 31 3 64 5 53 10 66 45 104 30 33 38 49 36 72 -2 16 -6 26 -10 22z m12 -304 c0 -5 -21 -10 -46 -10 -27 0 -43 4 -39 10 3 6 24 10 46 10 21 0 39 -4 39 -10z m75 -30 c0 -8 -8 -16 -17 -18 -10 -2 -18 1 -18 7 0 7 -27 12 -67 13 l-68 2 70 6 c91 9 100 8 100 -10z m180 -160 c-27 -28 -33 -30 -106 -30 -59 0 -80 4 -90 17 -8 9 -27 24 -44 35 -25 15 -27 18 -9 18 11 0 33 -13 49 -30 26 -27 35 -30 94 -30 53 0 69 4 88 22 13 12 23 28 23 37 0 12 3 12 12 3 9 -9 5 -19 -17 -42z m-126 26 c9 -10 8 -16 -4 -26 -19 -16 -41 1 -32 24 8 20 21 20 36 2z m91 -86 c0 -24 4 -23 -62 -8 l-53 12 45 7 c25 3 51 7 58 7 6 1 12 -7 12 -18z"/> <path d="M2454 1705 c-8 -21 2 -45 19 -45 21 0 38 25 31 44 -8 20 -43 21 -50 1z"/> <path d="M1520 1688 c-115 -58 -119 -227 -7 -285 44 -22 127 -21 169 4 32 18 33 22 36 86 l3 67 -66 0 c-58 0 -65 -2 -65 -20 0 -17 7 -20 45 -20 45 0 45 0 45 -35 0 -41 -23 -55 -92 -55 -32 0 -47 7 -74 34 -29 29 -34 41 -34 79 0 98 105 155 184 101 14 -10 23 -10 33 -2 22 18 15 28 -29 48 -56 26 -94 25 -148 -2z"/> <path d="M1863 1610 c-27 -16 -33 -17 -33 -5 0 8 -9 15 -20 15 -19 0 -20 -7 -20 -155 l0 -155 23 0 c22 0 23 3 19 63 l-4 62 24 -22 c29 -27 92 -31 126 -7 28 19 52 65 52 99 0 44 -29 92 -65 109 -43 21 -63 20 -102 -4z m91 -41 c20 -16 26 -29 26 -61 0 -54 -22 -78 -71 -78 -29 0 -42 6 -58 26 -25 32 -26 55 -6 94 23 45 66 53 109 19z"/> <path d="M2233 1619 c-37 -11 -45 -20 -33 -39 7 -11 14 -12 35 -2 38 18 72 15 95 -8 31 -31 24 -40 -35 -40 -67 0 -101 -15 -113 -49 -25 -71 54 -121 131 -82 29 15 37 16 37 5 0 -8 9 -14 20 -14 18 0 20 7 20 79 0 96 -10 125 -49 146 -33 17 -60 18 -108 4z m117 -138 c0 -23 -45 -61 -72 -61 -30 0 -58 19 -58 38 0 30 22 42 77 42 46 0 53 -3 53 -19z"/> <path d="M2460 1505 c0 -108 1 -115 20 -115 19 0 20 7 20 115 0 108 -1 115 -20 115 -19 0 -20 -7 -20 -115z"/> <path d="M894 1581 c-2 -2 -4 -15 -4 -28 0 -23 0 -23 134 -23 104 0 136 -3 146 -14 6 -8 21 -17 33 -19 19 -4 18 -4 -4 -6 -15 0 -32 6 -39 14 -9 11 -35 15 -105 15 -70 0 -96 -4 -105 -15 -9 -10 -9 -15 -1 -15 6 0 11 4 11 8 0 4 38 9 84 11 80 2 86 1 115 -26 24 -23 30 -37 33 -78 2 -39 0 -50 -12 -50 -12 0 -14 11 -12 48 6 76 -11 87 -117 85 l-86 -2 71 -3 c96 -5 110 -20 105 -109 -2 -42 2 -70 10 -80 10 -12 8 -20 -14 -42 -14 -15 -27 -36 -30 -47 -4 -19 -5 -19 -6 2 0 12 11 35 25 52 14 17 21 31 15 31 -7 0 -11 27 -11 74 0 48 -4 77 -13 84 -7 6 -47 14 -88 18 -77 6 -104 18 -95 41 4 9 -3 13 -20 13 -24 0 -25 -3 -22 -47 l3 -46 88 2 87 2 0 -45 c0 -35 -5 -48 -20 -56 -17 -9 -20 -21 -20 -90 0 -44 -3 -80 -7 -80 -5 0 -7 36 -5 79 3 76 3 79 -17 74 -18 -5 -21 -13 -21 -63 0 -54 -3 -61 -32 -84 l-33 -26 27 0 c52 0 129 21 121 33 -4 7 -9 28 -10 47 -2 19 -4 46 -6 60 -2 29 26 36 31 8 2 -10 -1 -18 -7 -18 -6 0 -11 -7 -11 -17 0 -14 2 -14 20 2 16 15 20 31 20 82 0 96 -6 103 -95 103 -43 0 -77 5 -81 11 -4 8 -9 7 -15 -2 -6 -10 -9 -10 -9 -2 0 18 20 27 33 14 6 -6 41 -11 77 -11 91 0 110 -20 110 -112 0 -53 -4 -68 -21 -84 -15 -14 -19 -26 -15 -49 4 -19 3 -25 -3 -16 -5 8 -11 9 -15 3 -3 -5 1 -13 9 -16 22 -8 103 34 108 56 3 10 14 18 24 18 37 0 43 19 43 147 0 123 0 123 -24 123 -13 0 -29 7 -37 16 -11 13 -34 15 -143 13 -107 -3 -130 -1 -134 11 -3 13 -2 13 8 0 6 -8 13 -11 16 -5 7 17 240 7 254 -11 7 -8 23 -14 36 -14 19 0 24 5 24 25 l0 24 -176 3 c-97 2 -178 1 -180 -1z m336 -111 c-9 -6 -11 -13 -5 -17 6 -5 8 -45 4 -103 l-5 -95 -2 81 c-1 45 -5 96 -8 113 -5 26 -3 31 12 31 16 0 17 -2 4 -10z m-35 -167 c-6 -36 -52 -99 -64 -88 -2 3 8 19 24 35 26 27 28 33 17 51 -14 23 -8 39 15 39 12 0 14 -7 8 -37z m-187 -69 c-3 -48 -7 -59 -28 -72 -25 -16 -25 -16 -7 4 11 14 17 37 17 72 0 30 5 52 10 52 7 0 10 -22 8 -56z"/> <path d="M2080 1435 c-17 -20 -5 -45 20 -45 11 0 23 7 26 15 6 15 -11 45 -26 45 -4 0 -13 -7 -20 -15z"/> <path d="M775 1063 c-11 -3 -24 -9 -29 -14 -11 -10 -3 -11 174 -9 168 2 180 3 180 15 0 10 -288 18 -325 8z"/> </g> </svg> 