 <svg  version="1.0" xmlns="http://www.w3.org/2000/svg"  width="300.000000pt" height="119.000000pt" viewBox="0 0 300.000000 119.000000"  preserveAspectRatio="xMidYMid meet">  <g transform="translate(0.000000,119.000000) scale(0.100000,-0.100000)" fill="#6304c3" stroke="none"> <path d="M547 1154 c-4 -4 -4 -16 -1 -28 4 -16 -10 -35 -56 -81 l-60 -59 0 -67 0 -66 43 21 c34 17 60 21 142 21 90 0 105 -3 148 -27 57 -32 60 -24 7 20 -39 32 -39 32 -152 32 -72 0 -118 -4 -125 -11 -16 -16 -43 -4 -43 18 0 24 34 53 62 53 20 0 20 1 4 13 -10 7 -15 19 -11 29 9 24 32 30 49 13 11 -12 42 -15 130 -15 l114 0 36 -41 c20 -24 41 -39 49 -36 7 3 32 27 55 54 39 47 40 50 21 61 -14 9 -23 9 -38 1 -23 -15 -51 -5 -51 17 0 16 1 16 19 0 12 -11 21 -14 26 -7 12 21 -50 32 -165 30 -87 -2 -118 -6 -126 -17 -15 -20 -54 -6 -54 19 0 25 27 36 51 21 11 -7 61 -12 126 -11 84 0 102 3 83 11 -63 26 -266 49 -283 32z m288 -114 c10 -11 31 -20 47 -20 15 0 28 -4 28 -10 0 -21 -57 -10 -81 16 -23 25 -27 26 -126 22 -57 -2 -103 0 -103 4 0 5 49 8 108 8 96 0 111 -2 127 -20z"/> <path d="M463 1143 c-7 -2 -13 -10 -13 -17 0 -6 -22 -34 -50 -61 l-50 -49 0 -125 c0 -100 2 -122 13 -112 8 8 12 47 12 121 l0 108 63 63 c34 34 62 66 62 71 0 9 -17 9 -37 1z"/> <path d="M510 1132 c0 -10 -27 -44 -60 -77 l-60 -59 0 -89 c0 -74 2 -88 13 -78 10 8 13 30 10 83 l-5 73 61 60 c39 38 61 67 61 82 0 13 -4 23 -10 23 -5 0 -10 -8 -10 -18z"/> <path d="M420 1132 c-8 -2 -36 -25 -62 -50 l-48 -46 0 -116 0 -116 -60 -59 c-33 -33 -60 -64 -60 -70 0 -19 55 -65 77 -65 12 0 25 -4 28 -10 4 -6 -6 -10 -22 -10 -34 0 -93 55 -93 86 0 11 27 46 60 79 l60 59 0 117 0 118 37 30 c45 37 35 40 -22 7 l-41 -25 3 -113 4 -113 -65 -68 c-81 -83 -84 -104 -25 -165 35 -35 48 -42 80 -42 38 0 39 1 39 35 0 30 -3 35 -23 35 -13 0 -34 11 -47 25 -18 19 -20 25 -8 25 9 0 18 9 21 20 6 24 45 27 53 5 9 -21 -16 -47 -38 -41 -16 4 -17 2 -7 -10 6 -8 20 -14 30 -14 31 0 49 89 49 246 l0 138 52 53 c51 52 58 65 28 55z"/> <path d="M590 1105 c0 -9 5 -15 11 -13 6 2 11 8 11 13 0 5 -5 11 -11 13 -6 2 -11 -4 -11 -13z"/> <path d="M245 1040 c-5 -8 -8 -55 -7 -105 l3 -90 -65 -65 -66 -64 0 -63 c0 -34 5 -65 10 -68 16 -10 12 -42 -7 -49 -21 -9 -46 16 -37 37 3 9 10 17 15 17 5 0 9 30 9 68 l0 67 60 60 59 60 1 84 c0 72 -2 82 -15 71 -11 -9 -12 -16 -2 -31 9 -14 9 -21 -1 -31 -6 -6 -12 -26 -12 -43 0 -24 -12 -43 -60 -90 l-60 -59 0 -78 c0 -45 -4 -78 -10 -78 -5 0 -10 -16 -10 -35 l0 -35 98 0 c60 0 102 4 109 11 17 17 43 3 43 -21 0 -24 -25 -37 -43 -22 -16 14 -208 20 -204 7 2 -5 40 -11 85 -13 45 -2 82 -7 82 -12 0 -6 -33 -7 -80 -4 -68 4 -80 3 -80 -10 0 -14 16 -16 100 -16 59 0 108 5 119 12 23 14 53 3 49 -18 -5 -27 -37 -42 -51 -24 -9 11 -36 15 -109 16 -54 1 -98 0 -98 -2 0 -1 5 -15 10 -30 8 -20 14 -24 22 -16 17 17 48 -4 48 -33 0 -24 10 -32 23 -18 4 3 2 12 -3 18 -6 7 -8 20 -4 29 7 18 39 22 49 6 3 -5 45 -10 92 -10 73 0 84 2 73 14 -6 8 -19 12 -28 9 -13 -5 -14 -3 -5 7 8 9 7 22 -8 54 -10 22 -19 53 -19 69 0 26 -2 27 -48 27 -26 0 -53 5 -59 11 -8 8 -13 8 -17 0 -10 -16 -46 -13 -52 4 -4 8 -1 22 6 30 10 13 10 19 -4 33 -33 37 -21 72 49 142 l66 66 -3 110 c-2 76 -6 104 -13 94z"/> <path d="M520 1016 c0 -9 7 -16 16 -16 17 0 14 22 -4 28 -7 2 -12 -3 -12 -12z"/> <path d="M550 990 c-10 -7 24 -10 105 -10 l119 0 37 -42 c36 -41 38 -42 55 -25 15 14 16 17 3 17 -8 0 -30 16 -49 35 l-34 35 -110 0 c-61 0 -118 -5 -126 -10z"/> <path d="M158 948 c-6 -13 -11 -33 -9 -46 2 -16 -11 -38 -38 -67 -23 -25 -41 -52 -41 -60 0 -10 20 5 50 37 44 47 50 57 47 91 -2 25 2 37 10 37 7 0 13 7 13 15 0 22 -18 18 -32 -7z"/> <path d="M495 950 c4 -6 57 -10 127 -10 l121 0 34 -40 c38 -43 48 -48 57 -25 3 10 -9 28 -32 50 l-37 34 -138 1 c-90 0 -136 -4 -132 -10z"/> <path d="M460 930 c0 -5 7 -10 15 -10 8 0 15 5 15 10 0 6 -7 10 -15 10 -8 0 -15 -4 -15 -10z"/> <path d="M123 899 c-5 -8 -16 -25 -23 -39 l-12 -25 27 26 c15 15 26 32 23 39 -3 9 -6 9 -15 -1z"/> <path d="M2906 897 c-22 -16 -18 -55 7 -71 39 -24 79 44 41 71 -10 7 -21 13 -24 13 -3 0 -14 -6 -24 -13z"/> <path d="M1553 881 c-209 -54 -243 -357 -50 -447 68 -31 162 -33 227 -3 75 34 76 37 73 140 l-2 91 -91 2 -90 1 0 -34 0 -33 60 4 60 4 0 -52 c0 -51 0 -52 -40 -68 -149 -60 -292 59 -250 209 32 113 160 162 264 101 l44 -26 16 25 c20 31 16 40 -35 65 -44 23 -138 33 -186 21z"/> <path d="M2034 756 c-17 -8 -39 -24 -48 -37 l-16 -23 0 32 c0 29 -3 32 -32 32 l-33 0 3 -235 3 -235 29 0 30 0 0 91 0 91 31 -26 c38 -32 68 -40 121 -33 156 21 191 263 48 335 -50 25 -91 27 -136 8z m115 -72 c88 -74 47 -214 -63 -214 -48 0 -80 19 -101 60 -59 114 69 234 164 154z"/> <path d="M2558 753 c-50 -17 -54 -22 -38 -53 9 -17 13 -18 45 -4 76 31 165 4 165 -51 0 -22 -3 -23 -96 -27 -94 -3 -96 -4 -125 -36 -39 -44 -39 -90 0 -134 25 -28 35 -32 93 -36 58 -4 67 -1 95 22 38 32 43 32 40 4 -2 -18 3 -22 28 -22 l30 0 0 131 c0 117 -2 135 -21 160 -44 60 -123 77 -216 46z m172 -206 c0 -46 -36 -78 -94 -84 -38 -5 -48 -2 -70 20 -32 32 -32 42 -1 72 21 22 33 25 95 25 l70 0 0 -33z"/> <path d="M2900 588 l0 -173 30 1 31 1 2 171 2 172 -32 0 -33 0 0 -172z"/> <path d="M49 660 c-5 -55 -4 -68 7 -58 3 3 4 30 2 59 l-3 54 -6 -55z"/> <path d="M580 662 l0 -38 188 4 187 4 24 -26 c17 -18 35 -26 58 -26 20 0 32 -4 28 -10 -12 -19 -61 -10 -85 15 -23 25 -24 25 -212 25 l-188 0 0 -71 c0 -61 2 -70 18 -68 9 1 68 1 130 0 l112 -1 0 -64 c0 -61 -1 -64 -30 -76 l-30 -12 0 -116 c0 -94 -3 -119 -17 -134 -13 -14 -13 -18 -2 -14 8 2 38 12 67 21 52 17 52 17 52 58 0 35 6 48 42 84 34 35 39 43 25 49 -14 5 -17 22 -17 113 0 99 -2 109 -23 129 -21 20 -34 22 -128 22 -86 0 -108 4 -128 19 -30 23 -22 51 14 51 14 0 25 -4 25 -9 0 -6 47 -8 118 -4 l117 5 42 -43 c36 -35 43 -50 43 -81 0 -21 5 -47 12 -57 16 -26 3 -53 -24 -49 -26 3 -38 45 -16 53 8 3 13 21 12 46 -1 31 -9 48 -35 75 l-33 34 -114 0 c-87 0 -117 -3 -128 -15 -14 -13 -3 -15 97 -15 109 0 114 -1 141 -27 27 -26 28 -30 28 -129 0 -58 4 -106 10 -109 20 -12 9 -42 -30 -80 -28 -28 -40 -47 -40 -68 0 -36 24 -32 28 5 2 14 21 42 43 64 41 40 47 61 27 93 -15 24 -4 51 21 51 24 0 35 -28 19 -48 -7 -8 -12 -24 -10 -34 2 -12 -14 -38 -42 -68 -40 -43 -60 -79 -38 -68 50 24 62 33 62 44 0 20 28 43 47 38 17 -5 18 5 15 143 -2 81 -9 154 -14 161 -7 8 -7 17 2 27 14 17 40 20 40 5 0 -5 -7 -10 -15 -10 -8 0 -15 -4 -15 -10 0 -5 5 -10 10 -10 23 0 35 24 32 61 -4 36 -6 39 -36 39 -22 0 -40 8 -56 25 -23 25 -26 25 -187 25 -90 0 -163 -4 -163 -9 0 -15 -27 -20 -45 -8 -10 8 -14 19 -9 30 7 18 39 23 49 7 4 -6 73 -10 174 -10 166 0 168 0 191 -25 27 -28 75 -34 84 -9 9 24 8 27 -14 21 -21 -5 -45 16 -35 33 4 7 -70 10 -234 10 l-241 0 0 -38z m60 -147 c10 -12 36 -15 114 -15 99 0 103 -1 129 -28 26 -27 27 -33 27 -128 0 -98 -1 -101 -30 -129 -31 -30 -38 -63 -19 -82 17 -17 3 -43 -21 -43 -24 0 -38 26 -21 43 14 14 15 51 1 42 -6 -4 -10 5 -10 20 0 14 -5 34 -12 44 -15 24 -4 51 22 51 26 0 37 -27 22 -51 -7 -10 -12 -26 -12 -36 0 -13 6 -11 30 12 29 28 30 31 30 124 -1 85 -3 99 -24 124 -23 28 -23 28 -129 25 -81 -2 -107 0 -107 10 0 19 -30 14 -31 -5 0 -11 -2 -13 -6 -5 -14 35 23 56 47 27z m230 -212 c-1 -31 -3 -35 -11 -20 -6 9 -7 26 -4 37 10 30 15 24 15 -17z"/> <path d="M830 115 c0 -9 5 -15 11 -13 6 2 11 8 11 13 0 5 -5 11 -11 13 -6 2 -11 -4 -11 -13z"/> <path d="M1070 685 c0 -8 7 -15 15 -15 8 0 15 7 15 15 0 8 -7 15 -15 15 -8 0 -15 -7 -15 -15z"/> <path d="M620 665 c0 -9 5 -15 11 -13 6 2 11 8 11 13 0 5 -5 11 -11 13 -6 2 -11 -4 -11 -13z"/> <path d="M160 575 c0 -9 5 -15 11 -13 6 2 11 8 11 13 0 5 -5 11 -11 13 -6 2 -11 -4 -11 -13z"/> <path d="M650 576 c0 -9 7 -16 16 -16 9 0 14 5 12 12 -6 18 -28 21 -28 4z"/> <path d="M90 565 c0 -9 5 -15 11 -13 6 2 11 8 11 13 0 5 -5 11 -11 13 -6 2 -11 -4 -11 -13z"/> <path d="M266 523 c-11 -11 -6 -23 9 -23 8 0 15 4 15 9 0 13 -16 22 -24 14z"/> <path d="M1087 503 c-4 -3 -7 -69 -7 -147 0 -182 17 -169 22 17 3 129 1 146 -15 130z"/> <path d="M2342 488 c-7 -7 -12 -25 -12 -40 0 -21 6 -29 25 -34 31 -8 55 10 55 40 0 26 -18 46 -40 46 -9 0 -21 -5 -28 -12z"/> <path d="M285 441 c-7 -12 12 -24 25 -16 11 7 4 25 -10 25 -5 0 -11 -4 -15 -9z"/> <path d="M97 364 c-9 -10 4 -34 19 -34 8 0 14 9 14 20 0 19 -19 27 -33 14z"/> <path d="M182 359 c2 -6 8 -10 13 -10 5 0 11 4 13 10 2 6 -4 11 -13 11 -9 0 -15 -5 -13 -11z"/> <path d="M295 351 l-80 -6 76 -9 c73 -8 79 -10 120 -52 35 -36 50 -44 79 -44 29 1 92 34 79 43 -8 6 -95 29 -128 34 -21 4 -35 12 -38 24 -3 11 -10 18 -17 17 -6 -1 -47 -4 -91 -7z"/> <path d="M122 300 c11 -18 24 -20 100 -20 56 0 88 4 88 11 0 21 45 4 48 -19 4 -29 -23 -40 -47 -18 -22 20 -165 24 -158 4 2 -8 23 -13 55 -13 47 0 55 -4 95 -43 l43 -42 98 0 98 0 34 38 c58 64 38 114 -21 52 -24 -25 -36 -30 -72 -28 -38 1 -47 7 -83 50 l-41 48 -88 0 c-56 0 -92 -4 -100 -12 -11 -10 -14 -10 -18 0 -3 6 -13 12 -24 12 -17 0 -18 -3 -7 -20z m292 -75 c7 -20 -18 -49 -38 -42 -25 10 -32 38 -12 53 20 14 42 9 50 -11z m126 -30 c0 -9 -19 -14 -56 -17 -62 -3 -69 -1 -53 18 15 18 109 16 109 -1z"/> <path d="M370 216 c0 -9 7 -16 16 -16 9 0 14 5 12 12 -6 18 -28 21 -28 4z"/> <path d="M990 310 c0 -5 7 -10 15 -10 8 0 15 5 15 10 0 6 -7 10 -15 10 -8 0 -15 -4 -15 -10z"/> <path d="M747 303 c-4 -3 -7 -49 -7 -102 0 -94 0 -96 -32 -129 l-33 -33 30 7 c45 11 54 31 55 114 0 41 3 92 6 113 6 34 -2 47 -19 30z"/> <path d="M713 293 c-9 -3 -13 -30 -13 -88 l0 -83 -46 -41 c-47 -41 -47 -41 -18 -40 21 0 39 12 62 39 32 38 33 39 30 128 -2 65 -6 88 -15 85z"/> <path d="M326 283 c-11 -11 -6 -23 9 -23 8 0 15 4 15 9 0 13 -16 22 -24 14z"/> <path d="M663 274 c-3 -8 -3 -41 0 -72 6 -54 4 -60 -24 -90 -33 -35 -50 -40 -68 -18 -15 18 2 56 24 56 8 0 15 7 15 15 0 8 9 19 20 25 25 14 29 90 5 90 -10 0 -15 -10 -15 -33 0 -25 -9 -42 -39 -71 l-39 -38 -111 7 -112 8 -31 38 c-27 33 -37 39 -70 39 -21 0 -38 -2 -38 -4 0 -14 94 -97 113 -100 8 -1 21 -7 29 -13 29 -25 110 -52 189 -64 l82 -13 49 53 48 52 0 75 c0 70 -12 96 -27 58z m-392 -106 l34 -43 -42 35 c-41 35 -51 50 -34 50 5 0 24 -19 42 -42z m267 -66 c4 -25 -23 -41 -41 -23 -6 6 -29 12 -51 12 -23 1 -54 5 -71 9 -23 6 -12 8 43 9 44 1 72 5 72 12 0 21 45 4 48 -19z"/> <path d="M500 100 c0 -5 7 -10 15 -10 8 0 15 5 15 10 0 6 -7 10 -15 10 -8 0 -15 -4 -15 -10z"/> <path d="M625 160 c-8 -13 4 -32 16 -25 12 8 12 35 0 35 -6 0 -13 -4 -16 -10z"/> <path d="M597 134 c-8 -8 3 -34 14 -34 11 0 12 27 0 34 -4 3 -11 3 -14 0z"/> </g> </svg> 